# xmcd
#
# Track frame offsets:
#	150
#	11430
#	21705
#	34305
#	47955
#	55973
#	66068
#	76501
#	89956
#	99271
#	109561
#
# Disc length: 1607 seconds
#
# Revision: 1
# Processed by: cddbd v1.5.2PL0 Copyright (c) Steve Scherf et al.
# Submitted via: audiograbber 1.83.01
#
DISCID=8b06450b
DTITLE=Dean Martin  - Southern Style
DYEAR=1965
DGENRE=Country
TTITLE0=Carolina Moon
TTITLE1=Waiting For The Robert E. Lee
TTITLE2=When It's Sleepy Time Down South
TTITLE3=Mississippi Mud
TTITLE4=Alabamy Bound
TTITLE5=Carolina In The Morning
TTITLE6=Way Down Yonder In New Orleans
TTITLE7=Georgia On My Mind
TTITLE8=Just A Little Bit South Of North Carolina
TTITLE9=Basin Street Blues
TTITLE10=Is It True What They Say About Dixie?
EXTD=
EXTT0=
EXTT1=
EXTT2=
EXTT3=
EXTT4=
EXTT5=
EXTT6=
EXTT7=
EXTT8=
EXTT9=
EXTT10=
PLAYORDER=
